<svg xmlns="http://www.w3.org/2000/svg" xmlns:xlink="http://www.w3.org/1999/xlink" width="160" height="160" viewBox="0 0 160 160">
  <defs>
    <clipPath id="clip-icon_product-drivers">
      <rect width="160" height="160"/>
    </clipPath>
  </defs>
  <g id="icon_product-drivers" clip-path="url(#clip-icon_product-drivers)">
    <g id="그룹_100" data-name="그룹 100" transform="translate(-0.5)">
      <path id="패스_82" data-name="패스 82" d="M133.454,52.081c-.011-.057-.03-.111-.044-.167a2.4,2.4,0,0,0-.084-.276c-.024-.061-.053-.119-.081-.178-.038-.079-.079-.157-.125-.233-.035-.056-.072-.109-.111-.162-.028-.038-.048-.078-.078-.114L108.279,20.9c-.022-.026-.049-.045-.072-.07a2.35,2.35,0,0,0-.225-.22c-.05-.044-.1-.089-.154-.129a2.531,2.531,0,0,0-.281-.173c-.052-.029-.1-.061-.156-.086a2.394,2.394,0,0,0-.357-.124c-.043-.012-.085-.031-.129-.04a2.425,2.425,0,0,0-.522-.059H34.9a7.456,7.456,0,0,0-7.4,7.5v105a7.456,7.456,0,0,0,7.4,7.5H126.1a7.456,7.456,0,0,0,7.4-7.5V52.55A2.563,2.563,0,0,0,133.454,52.081Zm-24.6-22.667L125.777,50.05H111.314a2.486,2.486,0,0,1-2.465-2.5ZM126.1,135H34.9a2.485,2.485,0,0,1-2.465-2.5V27.5A2.486,2.486,0,0,1,34.9,25h69.023V47.55a7.456,7.456,0,0,0,7.4,7.5H128.57V132.5A2.485,2.485,0,0,1,126.1,135Z"/>
      <path id="패스_83" data-name="패스 83" d="M105,90a2.5,2.5,0,0,0-2.5,2.5v5A2.5,2.5,0,0,1,100,100H62.5A2.5,2.5,0,0,1,60,97.5v-5a2.5,2.5,0,0,0-5,0v5a7.508,7.508,0,0,0,7.5,7.5H100a7.508,7.508,0,0,0,7.5-7.5v-5A2.5,2.5,0,0,0,105,90Z" transform="translate(-0.75)" fill="#da0f47"/>
      <path id="패스_84" data-name="패스 84" d="M79.565,91.846a2.5,2.5,0,0,0,3.373,0l11.25-10.278a2.5,2.5,0,0,0-3.373-3.691L83.751,84.33V62.5a2.5,2.5,0,0,0-5,0V84.33l-7.063-6.453a2.5,2.5,0,1,0-3.373,3.691Z" transform="translate(-0.75)" fill="#da0f47"/>
    </g>
  </g>
</svg>
